<svg width="32" height="32" viewBox="0 0 32 32" fill="none" xmlns="http://www.w3.org/2000/svg">
<rect width="32" height="32" rx="6" fill="white"/>

<!-- Упрощенная рука с домиком -->
<g transform="translate(4, 4)">
  <!-- Ладонь -->
  <ellipse cx="12" cy="16" rx="8" ry="5" stroke="#4F7EF7" stroke-width="1.5" fill="none"/>
  
  <!-- Пальцы (упрощенные) -->
  <path d="M8 11 Q7 8 8 6" stroke="#4F7EF7" stroke-width="1.5" fill="none"/>
  <path d="M10 9 Q9 6 10 4" stroke="#4F7EF7" stroke-width="1.5" fill="none"/>
  <path d="M12 8 Q11 5 12 3" stroke="#4F7EF7" stroke-width="1.5" fill="none"/>
  <path d="M14 9 Q13 6 14 4" stroke="#4F7EF7" stroke-width="1.5" fill="none"/>
  <path d="M16 11 Q15 8 16 6" stroke="#4F7EF7" stroke-width="1.5" fill="none"/>
  
  <!-- Домик -->
  <g transform="translate(8, 10)">
    <rect x="0" y="4" width="8" height="6" stroke="#4F7EF7" stroke-width="1.2" fill="none"/>
    <path d="M-1 4 L4 0 L9 4" stroke="#4F7EF7" stroke-width="1.2" fill="none"/>
    <rect x="3" y="7" width="2" height="3" stroke="#4F7EF7" stroke-width="1" fill="none"/>
    <rect x="1" y="5.5" width="1.5" height="1.5" stroke="#4F7EF7" stroke-width="0.8" fill="none"/>
    <rect x="5.5" y="5.5" width="1.5" height="1.5" stroke="#4F7EF7" stroke-width="0.8" fill="none"/>
  </g>
</g>
</svg>