<svg xmlns="http://www.w3.org/2000/svg" viewBox="0 0 32 32">
  <defs>
    <linearGradient id="favicon-bg" x1="0%" y1="0%" x2="100%" y2="100%">
      <stop offset="0%" style="stop-color:#4F46E5;stop-opacity:1" />
      <stop offset="100%" style="stop-color:#5B67DB;stop-opacity:1" />
    </linearGradient>
  </defs>
  
  <!-- Background -->
  <rect width="32" height="32" rx="6" fill="url(#favicon-bg)"/>
  
  <!-- Hand and house icon -->
  <g transform="translate(4, 6)">
    <!-- Hand outline -->
    <path d="M4 12 L4 9 C4 8, 5 7, 6 7 C7 7, 8 8, 8 9 L8 10 C8 9, 9 8, 10 8 C11 8, 12 9, 12 10 L12 11 C12 10, 13 9, 14 9 C15 9, 16 10, 16 11 L16 12 C16 11, 17 10, 18 10 C19 10, 20 11, 20 12 L20 16 C20 18, 18 20, 16 20 L10 20 C8 20, 6 18, 6 16 L6 14 C6 13, 4 12, 4 12 Z" 
          fill="none" stroke="white" stroke-width="1.5" stroke-linecap="round" stroke-linejoin="round"/>
    
    <!-- House on hand -->
    <g transform="translate(10, 2)">
      <!-- House base -->
      <rect x="0" y="4" width="6" height="5" fill="none" stroke="white" stroke-width="1" stroke-linecap="round"/>
      <!-- Roof -->
      <polygon points="0,4 3,1 6,4" fill="none" stroke="white" stroke-width="1" stroke-linecap="round" stroke-linejoin="round"/>
      <!-- Door -->
      <rect x="2" y="6" width="2" height="3" fill="none" stroke="white" stroke-width="0.8"/>
    </g>
  </g>
</svg>
