<svg xmlns="http://www.w3.org/2000/svg" viewBox="0 0 200 60">
  <!-- Hand and house icon -->
  <g transform="translate(5, 10)">
    <!-- Hand outline -->
    <path d="M8 24 L8 18 C8 16, 10 14, 12 14 C14 14, 16 16, 16 18 L16 20 C16 18, 18 16, 20 16 C22 16, 24 18, 24 20 L24 22 C24 20, 26 18, 28 18 C30 18, 32 20, 32 22 L32 24 C32 22, 34 20, 36 20 C38 20, 40 22, 40 24 L40 32 C40 36, 36 40, 32 40 L20 40 C16 40, 12 36, 12 32 L12 28 C12 26, 8 24, 8 24 Z" 
          fill="none" stroke="#4F46E5" stroke-width="2.5" stroke-linecap="round" stroke-linejoin="round"/>
    
    <!-- House on hand -->
    <g transform="translate(20, 8)">
      <!-- House base -->
      <rect x="0" y="8" width="12" height="8" fill="none" stroke="#4F46E5" stroke-width="2" stroke-linecap="round"/>
      <!-- Roof -->
      <polygon points="0,8 6,2 12,8" fill="none" stroke="#4F46E5" stroke-width="2" stroke-linecap="round" stroke-linejoin="round"/>
      <!-- Door -->
      <rect x="4" y="12" width="3" height="4" fill="none" stroke="#4F46E5" stroke-width="1.5"/>
      <!-- Windows -->
      <rect x="1.5" y="10" width="2" height="2" fill="none" stroke="#4F46E5" stroke-width="1"/>
      <rect x="8.5" y="10" width="2" height="2" fill="none" stroke="#4F46E5" stroke-width="1"/>
    </g>
  </g>
  
  <!-- Text -->
  <text x="70" y="32" fill="#1e3a8a" font-family="Arial, sans-serif" font-size="18" font-weight="bold">Komek</text>
  <text x="125" y="32" fill="#059669" font-family="Arial, sans-serif" font-size="18" font-weight="normal">damu</text>
</svg>
